<svg width="16" height="16" viewBox="0 0 16 16" fill="none" xmlns="http://www.w3.org/2000/svg">
<path d="M4.66667 10.8667C6.13333 10.8667 7.33333 9.64666 7.33333 8.16666C7.33333 7.39333 6.95333 6.65999 6.19333 6.03999C5.43333 5.41999 4.86 4.49999 4.66667 3.53333C4.47333 4.49999 3.90667 5.42666 3.14 6.03999C2.37333 6.65333 2 7.39999 2 8.16666C2 9.64666 3.2 10.8667 4.66667 10.8667Z" stroke="#6A7282" stroke-width="1.33333" stroke-linecap="round" stroke-linejoin="round"/>
<path d="M8.37193 4.40009C8.83043 3.66751 9.15546 2.85946 9.33193 2.01343C9.66526 3.68009 10.6653 5.28009 11.9986 6.34676C13.3319 7.41343 13.9986 8.68009 13.9986 10.0134C14.0024 10.935 13.7325 11.8369 13.2231 12.6048C12.7137 13.3728 11.9878 13.9722 11.1373 14.3271C10.2869 14.682 9.35021 14.7764 8.44604 14.5983C7.54188 14.4202 6.71095 13.9777 6.05859 13.3268" stroke="#6A7282" stroke-width="1.33333" stroke-linecap="round" stroke-linejoin="round"/>
</svg>

