<svg width="16" height="16" viewBox="0 0 16 16" fill="none" xmlns="http://www.w3.org/2000/svg">
<path d="M2 4H4" stroke="#6A7282" stroke-width="1.33333" stroke-linecap="round" stroke-linejoin="round"/>
<path d="M11.332 4H11.3387" stroke="#6A7282" stroke-width="1.33333" stroke-linecap="round" stroke-linejoin="round"/>
<path d="M12.6667 1.33331H3.33333C2.59695 1.33331 2 1.93027 2 2.66665V13.3333C2 14.0697 2.59695 14.6666 3.33333 14.6666H12.6667C13.403 14.6666 14 14.0697 14 13.3333V2.66665C14 1.93027 13.403 1.33331 12.6667 1.33331Z" stroke="#6A7282" stroke-width="1.33333" stroke-linecap="round" stroke-linejoin="round"/>
<path d="M8.0013 11.9999C9.84225 11.9999 11.3346 10.5075 11.3346 8.66659C11.3346 6.82564 9.84225 5.33325 8.0013 5.33325C6.16035 5.33325 4.66797 6.82564 4.66797 8.66659C4.66797 10.5075 6.16035 11.9999 8.0013 11.9999Z" stroke="#6A7282" stroke-width="1.33333" stroke-linecap="round" stroke-linejoin="round"/>
<path d="M7.9987 11.9999C8.44073 11.9999 8.86465 11.8243 9.17721 11.5118C9.48977 11.1992 9.66536 10.7753 9.66536 10.3333C9.66536 9.89122 9.48977 9.4673 9.17721 9.15474C8.86465 8.84218 8.44073 8.66659 7.9987 8.66659C7.55667 8.66659 7.13275 8.49099 6.82019 8.17843C6.50763 7.86587 6.33203 7.44195 6.33203 6.99992C6.33203 6.55789 6.50763 6.13397 6.82019 5.82141C7.13275 5.50885 7.55667 5.33325 7.9987 5.33325" stroke="#6A7282" stroke-width="1.33333" stroke-linecap="round" stroke-linejoin="round"/>
</svg>

