<svg width="16" height="16" viewBox="0 0 16 16" fill="none" xmlns="http://www.w3.org/2000/svg">
<path d="M12.0004 10C12.7076 10 13.3859 10.281 13.886 10.7811C14.3861 11.2812 14.667 11.9594 14.667 12.6667C14.667 13.3739 14.3861 14.0522 13.886 14.5523C13.3859 15.0524 12.7076 15.3333 12.0004 15.3333C11.2931 15.3333 10.6148 15.0524 10.1147 14.5523C9.61465 14.0522 9.3337 13.3739 9.3337 12.6667C9.3337 11.9594 9.61465 11.2812 10.1147 10.7811C10.6148 10.281 11.2931 10 12.0004 10ZM12.0004 11.3333C11.6467 11.3333 11.3076 11.4738 11.0576 11.7239C10.8075 11.9739 10.667 12.3131 10.667 12.6667C10.667 13.0203 10.8075 13.3594 11.0576 13.6095C11.3076 13.8595 11.6467 14 12.0004 14C12.354 14 12.6931 13.8595 12.9432 13.6095C13.1932 13.3594 13.3337 13.0203 13.3337 12.6667C13.3337 12.3131 13.1932 11.9739 12.9432 11.7239C12.6931 11.4738 12.354 11.3333 12.0004 11.3333ZM4.0337 9.69335C4.0337 9.69335 4.9737 8.74668 4.98036 6.86668C4.74036 5.40668 5.3137 3.69335 6.62703 2.38668C8.58036 0.433347 11.427 0.113347 13.0004 1.66668C14.5537 3.24001 14.2337 6.08668 12.2804 8.04001C10.9737 9.35335 9.26036 9.92668 7.80036 9.68668C5.92036 9.69335 4.9737 10.6333 4.9737 10.6333L2.14703 13.46L1.20703 12.52L4.0337 9.69335ZM12.047 2.62001C11.0004 1.58001 9.00036 1.89335 7.56703 3.33335C6.14036 4.76001 5.82036 6.76668 6.86036 7.80668C7.90703 8.84668 9.90703 8.52668 11.3337 7.10001C12.7737 5.66668 13.087 3.66668 12.047 2.62001Z" fill="#6A7282"/>
</svg>

